<svg id="visual" viewBox="0 0 1920 1080" width="1920" height="1080" xmlns="http://www.w3.org/2000/svg" xmlns:xlink="http://www.w3.org/1999/xlink" version="1.1"><rect x="0" y="0" width="1920" height="1080" fill="#001220"></rect><path d="M0 584L24.7 583C49.3 582 98.7 580 147.8 585.8C197 591.7 246 605.3 295.2 603.3C344.3 601.3 393.7 583.7 443 617.3C492.3 651 541.7 736 590.8 723.8C640 711.7 689 602.3 738.2 607C787.3 611.7 836.7 730.3 886 770.5C935.3 810.7 984.7 772.3 1034 759.8C1083.3 747.3 1132.7 760.7 1181.8 729.5C1231 698.3 1280 622.7 1329.2 628.8C1378.3 635 1427.7 723 1477 730C1526.3 737 1575.7 663 1624.8 603.7C1674 544.3 1723 499.7 1772.2 541C1821.3 582.3 1870.7 709.7 1895.3 773.3L1920 837L1920 1081L1895.3 1081C1870.7 1081 1821.3 1081 1772.2 1081C1723 1081 1674 1081 1624.8 1081C1575.7 1081 1526.3 1081 1477 1081C1427.7 1081 1378.3 1081 1329.2 1081C1280 1081 1231 1081 1181.8 1081C1132.7 1081 1083.3 1081 1034 1081C984.7 1081 935.3 1081 886 1081C836.7 1081 787.3 1081 738.2 1081C689 1081 640 1081 590.8 1081C541.7 1081 492.3 1081 443 1081C393.7 1081 344.3 1081 295.2 1081C246 1081 197 1081 147.8 1081C98.7 1081 49.3 1081 24.7 1081L0 1081Z" fill="#c62368"></path><path d="M0 853L24.7 854.8C49.3 856.7 98.7 860.3 147.8 857.2C197 854 246 844 295.2 785.8C344.3 727.7 393.7 621.3 443 571.8C492.3 522.3 541.7 529.7 590.8 524.8C640 520 689 503 738.2 518.8C787.3 534.7 836.7 583.3 886 601C935.3 618.7 984.7 605.3 1034 643.3C1083.3 681.3 1132.7 770.7 1181.8 766.7C1231 762.7 1280 665.3 1329.2 633.3C1378.3 601.3 1427.7 634.7 1477 683C1526.3 731.3 1575.7 794.7 1624.8 815.8C1674 837 1723 816 1772.2 771.5C1821.3 727 1870.7 659 1895.3 625L1920 591L1920 1081L1895.3 1081C1870.7 1081 1821.3 1081 1772.2 1081C1723 1081 1674 1081 1624.8 1081C1575.7 1081 1526.3 1081 1477 1081C1427.7 1081 1378.3 1081 1329.2 1081C1280 1081 1231 1081 1181.8 1081C1132.7 1081 1083.3 1081 1034 1081C984.7 1081 935.3 1081 886 1081C836.7 1081 787.3 1081 738.2 1081C689 1081 640 1081 590.8 1081C541.7 1081 492.3 1081 443 1081C393.7 1081 344.3 1081 295.2 1081C246 1081 197 1081 147.8 1081C98.7 1081 49.3 1081 24.7 1081L0 1081Z" fill="#cc2b68"></path><path d="M0 897L24.7 884.5C49.3 872 98.7 847 147.8 839.7C197 832.3 246 842.7 295.2 826.2C344.3 809.7 393.7 766.3 443 722C492.3 677.7 541.7 632.3 590.8 624.2C640 616 689 645 738.2 695.3C787.3 745.7 836.7 817.3 886 821.8C935.3 826.3 984.7 763.7 1034 722.2C1083.3 680.7 1132.7 660.3 1181.8 655.2C1231 650 1280 660 1329.2 654.3C1378.3 648.7 1427.7 627.3 1477 632.3C1526.3 637.3 1575.7 668.7 1624.8 715.7C1674 762.7 1723 825.3 1772.2 817C1821.3 808.7 1870.7 729.3 1895.3 689.7L1920 650L1920 1081L1895.3 1081C1870.7 1081 1821.3 1081 1772.2 1081C1723 1081 1674 1081 1624.8 1081C1575.7 1081 1526.3 1081 1477 1081C1427.7 1081 1378.3 1081 1329.2 1081C1280 1081 1231 1081 1181.8 1081C1132.7 1081 1083.3 1081 1034 1081C984.7 1081 935.3 1081 886 1081C836.7 1081 787.3 1081 738.2 1081C689 1081 640 1081 590.8 1081C541.7 1081 492.3 1081 443 1081C393.7 1081 344.3 1081 295.2 1081C246 1081 197 1081 147.8 1081C98.7 1081 49.3 1081 24.7 1081L0 1081Z" fill="#d13367"></path><path d="M0 755L24.7 768C49.3 781 98.7 807 147.8 790.7C197 774.3 246 715.7 295.2 703.2C344.3 690.7 393.7 724.3 443 711.8C492.3 699.3 541.7 640.7 590.8 616.8C640 593 689 604 738.2 613.2C787.3 622.3 836.7 629.7 886 659C935.3 688.3 984.7 739.7 1034 781.7C1083.3 823.7 1132.7 856.3 1181.8 854.8C1231 853.3 1280 817.7 1329.2 787.5C1378.3 757.3 1427.7 732.7 1477 711.5C1526.3 690.3 1575.7 672.7 1624.8 658.5C1674 644.3 1723 633.7 1772.2 628.7C1821.3 623.7 1870.7 624.3 1895.3 624.7L1920 625L1920 1081L1895.3 1081C1870.7 1081 1821.3 1081 1772.2 1081C1723 1081 1674 1081 1624.8 1081C1575.7 1081 1526.3 1081 1477 1081C1427.7 1081 1378.3 1081 1329.2 1081C1280 1081 1231 1081 1181.8 1081C1132.7 1081 1083.3 1081 1034 1081C984.7 1081 935.3 1081 886 1081C836.7 1081 787.3 1081 738.2 1081C689 1081 640 1081 590.8 1081C541.7 1081 492.3 1081 443 1081C393.7 1081 344.3 1081 295.2 1081C246 1081 197 1081 147.8 1081C98.7 1081 49.3 1081 24.7 1081L0 1081Z" fill="#d73a67"></path><path d="M0 787L24.7 788.8C49.3 790.7 98.7 794.3 147.8 816.2C197 838 246 878 295.2 861.3C344.3 844.7 393.7 771.3 443 760.5C492.3 749.7 541.7 801.3 590.8 806.5C640 811.7 689 770.3 738.2 739.5C787.3 708.7 836.7 688.3 886 674.7C935.3 661 984.7 654 1034 671.2C1083.3 688.3 1132.7 729.7 1181.8 742.7C1231 755.7 1280 740.3 1329.2 751.8C1378.3 763.3 1427.7 801.7 1477 805.7C1526.3 809.7 1575.7 779.3 1624.8 770.5C1674 761.7 1723 774.3 1772.2 774.8C1821.3 775.3 1870.7 763.7 1895.3 757.8L1920 752L1920 1081L1895.3 1081C1870.7 1081 1821.3 1081 1772.2 1081C1723 1081 1674 1081 1624.8 1081C1575.7 1081 1526.3 1081 1477 1081C1427.7 1081 1378.3 1081 1329.2 1081C1280 1081 1231 1081 1181.8 1081C1132.7 1081 1083.3 1081 1034 1081C984.7 1081 935.3 1081 886 1081C836.7 1081 787.3 1081 738.2 1081C689 1081 640 1081 590.8 1081C541.7 1081 492.3 1081 443 1081C393.7 1081 344.3 1081 295.2 1081C246 1081 197 1081 147.8 1081C98.7 1081 49.3 1081 24.7 1081L0 1081Z" fill="#dc4167"></path><path d="M0 835L24.7 842.5C49.3 850 98.7 865 147.8 841.3C197 817.7 246 755.3 295.2 735.5C344.3 715.7 393.7 738.3 443 768.3C492.3 798.3 541.7 835.7 590.8 858.8C640 882 689 891 738.2 898.3C787.3 905.7 836.7 911.3 886 907.8C935.3 904.3 984.7 891.7 1034 877.8C1083.3 864 1132.7 849 1181.8 840.2C1231 831.3 1280 828.7 1329.2 828C1378.3 827.3 1427.7 828.7 1477 821.3C1526.3 814 1575.7 798 1624.8 793.8C1674 789.7 1723 797.3 1772.2 801.7C1821.3 806 1870.7 807 1895.3 807.5L1920 808L1920 1081L1895.3 1081C1870.7 1081 1821.3 1081 1772.2 1081C1723 1081 1674 1081 1624.8 1081C1575.7 1081 1526.3 1081 1477 1081C1427.7 1081 1378.3 1081 1329.2 1081C1280 1081 1231 1081 1181.8 1081C1132.7 1081 1083.3 1081 1034 1081C984.7 1081 935.3 1081 886 1081C836.7 1081 787.3 1081 738.2 1081C689 1081 640 1081 590.8 1081C541.7 1081 492.3 1081 443 1081C393.7 1081 344.3 1081 295.2 1081C246 1081 197 1081 147.8 1081C98.7 1081 49.3 1081 24.7 1081L0 1081Z" fill="#e14867"></path><path d="M0 979L24.7 963.3C49.3 947.7 98.7 916.3 147.8 890.3C197 864.3 246 843.7 295.2 834.5C344.3 825.3 393.7 827.7 443 836.5C492.3 845.3 541.7 860.7 590.8 858.7C640 856.7 689 837.3 738.2 834.2C787.3 831 836.7 844 886 831.5C935.3 819 984.7 781 1034 766.7C1083.3 752.3 1132.7 761.7 1181.8 796.3C1231 831 1280 891 1329.2 922.2C1378.3 953.3 1427.7 955.7 1477 954.3C1526.3 953 1575.7 948 1624.8 949.8C1674 951.7 1723 960.3 1772.2 955C1821.3 949.7 1870.7 930.3 1895.3 920.7L1920 911L1920 1081L1895.3 1081C1870.7 1081 1821.3 1081 1772.2 1081C1723 1081 1674 1081 1624.8 1081C1575.7 1081 1526.3 1081 1477 1081C1427.7 1081 1378.3 1081 1329.2 1081C1280 1081 1231 1081 1181.8 1081C1132.7 1081 1083.3 1081 1034 1081C984.7 1081 935.3 1081 886 1081C836.7 1081 787.3 1081 738.2 1081C689 1081 640 1081 590.8 1081C541.7 1081 492.3 1081 443 1081C393.7 1081 344.3 1081 295.2 1081C246 1081 197 1081 147.8 1081C98.7 1081 49.3 1081 24.7 1081L0 1081Z" fill="#e54f67"></path><path d="M0 955L24.7 931C49.3 907 98.7 859 147.8 837.2C197 815.3 246 819.7 295.2 823C344.3 826.3 393.7 828.7 443 838.5C492.3 848.3 541.7 865.7 590.8 875.3C640 885 689 887 738.2 884C787.3 881 836.7 873 886 879C935.3 885 984.7 905 1034 899C1083.3 893 1132.7 861 1181.8 872.8C1231 884.7 1280 940.3 1329.2 952.2C1378.3 964 1427.7 932 1477 920.3C1526.3 908.7 1575.7 917.3 1624.8 900C1674 882.7 1723 839.3 1772.2 843.3C1821.3 847.3 1870.7 898.7 1895.3 924.3L1920 950L1920 1081L1895.3 1081C1870.7 1081 1821.3 1081 1772.2 1081C1723 1081 1674 1081 1624.8 1081C1575.7 1081 1526.3 1081 1477 1081C1427.7 1081 1378.3 1081 1329.2 1081C1280 1081 1231 1081 1181.8 1081C1132.7 1081 1083.3 1081 1034 1081C984.7 1081 935.3 1081 886 1081C836.7 1081 787.3 1081 738.2 1081C689 1081 640 1081 590.8 1081C541.7 1081 492.3 1081 443 1081C393.7 1081 344.3 1081 295.2 1081C246 1081 197 1081 147.8 1081C98.7 1081 49.3 1081 24.7 1081L0 1081Z" fill="#ea5667"></path><path d="M0 853L24.7 873C49.3 893 98.7 933 147.8 934.7C197 936.3 246 899.7 295.2 906.3C344.3 913 393.7 963 443 970.8C492.3 978.7 541.7 944.3 590.8 916.7C640 889 689 868 738.2 864.8C787.3 861.7 836.7 876.3 886 899.3C935.3 922.3 984.7 953.7 1034 961.5C1083.3 969.3 1132.7 953.7 1181.8 928.5C1231 903.3 1280 868.7 1329.2 877.7C1378.3 886.7 1427.7 939.3 1477 946.2C1526.3 953 1575.7 914 1624.8 907.7C1674 901.3 1723 927.7 1772.2 923.3C1821.3 919 1870.7 884 1895.3 866.5L1920 849L1920 1081L1895.3 1081C1870.7 1081 1821.3 1081 1772.2 1081C1723 1081 1674 1081 1624.8 1081C1575.7 1081 1526.3 1081 1477 1081C1427.7 1081 1378.3 1081 1329.2 1081C1280 1081 1231 1081 1181.8 1081C1132.7 1081 1083.3 1081 1034 1081C984.7 1081 935.3 1081 886 1081C836.7 1081 787.3 1081 738.2 1081C689 1081 640 1081 590.8 1081C541.7 1081 492.3 1081 443 1081C393.7 1081 344.3 1081 295.2 1081C246 1081 197 1081 147.8 1081C98.7 1081 49.3 1081 24.7 1081L0 1081Z" fill="#ee5d67"></path><path d="M0 1030L24.7 1025.3C49.3 1020.7 98.7 1011.3 147.8 1011.3C197 1011.3 246 1020.7 295.2 1004.2C344.3 987.7 393.7 945.3 443 945.2C492.3 945 541.7 987 590.8 988.8C640 990.7 689 952.3 738.2 937.2C787.3 922 836.7 930 886 945.5C935.3 961 984.7 984 1034 994C1083.3 1004 1132.7 1001 1181.8 987.8C1231 974.7 1280 951.3 1329.2 955.5C1378.3 959.7 1427.7 991.3 1477 997.5C1526.3 1003.7 1575.7 984.3 1624.8 969.2C1674 954 1723 943 1772.2 947.3C1821.3 951.7 1870.7 971.3 1895.3 981.2L1920 991L1920 1081L1895.3 1081C1870.7 1081 1821.3 1081 1772.2 1081C1723 1081 1674 1081 1624.8 1081C1575.7 1081 1526.3 1081 1477 1081C1427.7 1081 1378.3 1081 1329.2 1081C1280 1081 1231 1081 1181.8 1081C1132.7 1081 1083.3 1081 1034 1081C984.7 1081 935.3 1081 886 1081C836.7 1081 787.3 1081 738.2 1081C689 1081 640 1081 590.8 1081C541.7 1081 492.3 1081 443 1081C393.7 1081 344.3 1081 295.2 1081C246 1081 197 1081 147.8 1081C98.7 1081 49.3 1081 24.7 1081L0 1081Z" fill="#f26467"></path><path d="M0 943L24.7 952.8C49.3 962.7 98.7 982.3 147.8 997.3C197 1012.3 246 1022.7 295.2 1021.2C344.3 1019.7 393.7 1006.3 443 996.8C492.3 987.3 541.7 981.7 590.8 977.3C640 973 689 970 738.2 980.2C787.3 990.3 836.7 1013.7 886 1011C935.3 1008.3 984.7 979.7 1034 972.3C1083.3 965 1132.7 979 1181.8 976.7C1231 974.3 1280 955.7 1329.2 954.8C1378.3 954 1427.7 971 1477 977.5C1526.3 984 1575.7 980 1624.8 982.7C1674 985.3 1723 994.7 1772.2 1000.8C1821.3 1007 1870.7 1010 1895.3 1011.5L1920 1013L1920 1081L1895.3 1081C1870.7 1081 1821.3 1081 1772.2 1081C1723 1081 1674 1081 1624.8 1081C1575.7 1081 1526.3 1081 1477 1081C1427.7 1081 1378.3 1081 1329.2 1081C1280 1081 1231 1081 1181.8 1081C1132.7 1081 1083.3 1081 1034 1081C984.7 1081 935.3 1081 886 1081C836.7 1081 787.3 1081 738.2 1081C689 1081 640 1081 590.8 1081C541.7 1081 492.3 1081 443 1081C393.7 1081 344.3 1081 295.2 1081C246 1081 197 1081 147.8 1081C98.7 1081 49.3 1081 24.7 1081L0 1081Z" fill="#f66b68"></path><path d="M0 1054L24.7 1051C49.3 1048 98.7 1042 147.8 1034.3C197 1026.7 246 1017.3 295.2 1017.7C344.3 1018 393.7 1028 443 1039.3C492.3 1050.7 541.7 1063.3 590.8 1058.7C640 1054 689 1032 738.2 1030.7C787.3 1029.3 836.7 1048.7 886 1053C935.3 1057.3 984.7 1046.7 1034 1044.2C1083.3 1041.7 1132.7 1047.3 1181.8 1048.5C1231 1049.7 1280 1046.3 1329.2 1042.2C1378.3 1038 1427.7 1033 1477 1028.8C1526.3 1024.7 1575.7 1021.3 1624.8 1023.7C1674 1026 1723 1034 1772.2 1039.2C1821.3 1044.3 1870.7 1046.7 1895.3 1047.8L1920 1049L1920 1081L1895.3 1081C1870.7 1081 1821.3 1081 1772.2 1081C1723 1081 1674 1081 1624.8 1081C1575.7 1081 1526.3 1081 1477 1081C1427.7 1081 1378.3 1081 1329.2 1081C1280 1081 1231 1081 1181.8 1081C1132.7 1081 1083.3 1081 1034 1081C984.7 1081 935.3 1081 886 1081C836.7 1081 787.3 1081 738.2 1081C689 1081 640 1081 590.8 1081C541.7 1081 492.3 1081 443 1081C393.7 1081 344.3 1081 295.2 1081C246 1081 197 1081 147.8 1081C98.7 1081 49.3 1081 24.7 1081L0 1081Z" fill="#fa7268"></path></svg>